<?xml version="1.0" encoding="iso-8859-1"?>
<!-- Generator: Adobe Illustrator 18.1.1, SVG Export Plug-In . SVG Version: 6.00 Build 0)  -->
<svg version="1.1" id="_x35_" xmlns="http://www.w3.org/2000/svg" xmlns:xlink="http://www.w3.org/1999/xlink" x="0px" y="0px"
	 viewBox="0 0 512 512" style="enable-background:new 0 0 512 512;" xml:space="preserve">
<g>
	<g>
		<path style="fill:#FFFFFF;" d="M167.573,248.409v-0.025h-11.986c-0.235,0-0.463,0.094-0.629,0.261
			c-0.169,0.167-0.263,0.397-0.263,0.633v56.91c0,0.235,0.094,0.465,0.261,0.631c0.167,0.169,0.397,0.263,0.632,0.263h11.774
			c0.236,0,0.467-0.094,0.629-0.261c0.169-0.166,0.264-0.397,0.264-0.633v-56.91c0-0.236-0.095-0.469-0.261-0.631
			C167.875,248.529,167.731,248.447,167.573,248.409z M166.467,305.293h-9.984V250.17h9.984V305.293z"/>
		<path style="fill:#FFFFFF;" d="M167.361,211.71h-11.774c-0.235,0-0.465,0.095-0.632,0.261c-0.166,0.169-0.261,0.398-0.261,0.631
			v29.433c0,0.234,0.094,0.464,0.262,0.632c0.166,0.165,0.396,0.259,0.631,0.259h11.774c0.236,0,0.467-0.095,0.629-0.259
			c0.169-0.168,0.264-0.397,0.264-0.632v-29.433c0-0.234-0.095-0.465-0.261-0.631C167.828,211.804,167.597,211.71,167.361,211.71z
			 M166.467,241.139h-9.984v-27.641h9.984V241.139z"/>
		<path style="fill:#FFFFFF;" d="M511.106,305.293h-7.941v-19.307c0-0.232-0.095-0.462-0.263-0.629
			c-0.166-0.169-0.396-0.263-0.631-0.263h-10.376v-30.984c0-0.235-0.096-0.466-0.263-0.632c-0.167-0.166-0.397-0.261-0.632-0.261
			h-8.619V237.88c0-0.232-0.096-0.463-0.265-0.632c-0.165-0.165-0.396-0.261-0.629-0.261h-15.669c-0.232,0-0.463,0.096-0.632,0.261
			c-0.165,0.169-0.261,0.4-0.261,0.632v7.504h-8.061c-0.232,0-0.465,0.095-0.632,0.261c-0.165,0.166-0.259,0.397-0.259,0.631v59.018
			h-3.418v-18.294c0-0.235-0.096-0.465-0.263-0.631c-0.165-0.167-0.394-0.262-0.631-0.262h-15.57c-0.236,0-0.466,0.095-0.633,0.262
			c-0.166,0.166-0.26,0.396-0.26,0.631v0.6l-9.14-6.094c-0.147-0.1-0.317-0.151-0.497-0.151c-0.176,0-0.346,0.051-0.494,0.151
			l-10.869,7.244v-34.405c0-0.235-0.097-0.466-0.262-0.631c-0.166-0.167-0.397-0.262-0.632-0.262h-24.682
			c-0.235,0-0.466,0.095-0.632,0.262c-0.165,0.168-0.262,0.397-0.262,0.631v24.416h-19.271c-0.235,0-0.463,0.095-0.633,0.261
			c-0.165,0.166-0.262,0.397-0.262,0.632v19.603h-4.065v-15.145c0-0.232-0.096-0.465-0.263-0.632
			c-0.166-0.166-0.397-0.263-0.632-0.263h-7.764v-35.388c0-0.233-0.095-0.464-0.262-0.632c-0.166-0.165-0.396-0.262-0.632-0.262
			h-10.005v-10.755c0-0.235-0.097-0.467-0.262-0.632c-0.166-0.166-0.397-0.263-0.632-0.263h-22.548
			c-0.236,0-0.467,0.097-0.635,0.263c-0.165,0.165-0.259,0.397-0.259,0.632v57.764h-6.107v-23.187c0-0.236-0.094-0.466-0.262-0.632
			c-0.168-0.166-0.397-0.264-0.631-0.264h-37.962c-0.233,0-0.463,0.097-0.632,0.264c-0.166,0.166-0.261,0.396-0.261,0.632v27.239
			h-6.717v-28.138c0-0.358-0.212-0.679-0.54-0.821l-11.12-4.784v-15.646c0-0.232-0.095-0.465-0.261-0.632
			c-0.167-0.166-0.397-0.262-0.632-0.262h-20.606c-0.235,0-0.466,0.096-0.632,0.265c-0.167,0.165-0.261,0.394-0.261,0.629v42.204
			h-5.239v-65.413c0-0.234-0.096-0.466-0.262-0.631c-0.165-0.166-0.396-0.262-0.632-0.262h-3.091v-5.085
			c0-0.235-0.096-0.466-0.261-0.631c-0.167-0.167-0.397-0.263-0.633-0.263h-3.091v-7.483c0-0.236-0.095-0.467-0.261-0.633
			c-0.166-0.166-0.398-0.261-0.633-0.261h-4.382c-0.236,0-0.467,0.095-0.633,0.261c-0.166,0.169-0.262,0.397-0.262,0.633v7.483
			h-3.091c-0.234,0-0.463,0.096-0.632,0.263c-0.166,0.165-0.261,0.396-0.261,0.631v5.085h-3.093c-0.235,0-0.464,0.096-0.632,0.262
			c-0.166,0.167-0.262,0.397-0.262,0.631v57.061h-16.09v-67.591c0-0.235-0.095-0.465-0.261-0.633
			c-0.169-0.163-0.397-0.261-0.631-0.261h-10.88v-8.161c0-0.236-0.096-0.469-0.262-0.632c-0.165-0.166-0.394-0.26-0.632-0.26
			h-30.786c-0.235,0-0.466,0.094-0.632,0.259c-0.166,0.167-0.262,0.397-0.262,0.633v8.161h-10.878c-0.235,0-0.466,0.097-0.632,0.263
			c-0.166,0.166-0.261,0.396-0.261,0.631v74.895l-4.992-3.33c-0.146-0.097-0.319-0.149-0.494-0.149
			c-0.178,0-0.348,0.051-0.496,0.151l-6.683,4.451v-34.036c0-0.302-0.15-0.581-0.404-0.748c-0.146-0.094-0.316-0.146-0.489-0.146
			c-0.123,0-0.243,0.024-0.355,0.073l-12.659,5.465V248.58c0-0.303-0.151-0.581-0.403-0.744c-0.146-0.1-0.315-0.149-0.489-0.149
			c-0.123,0-0.243,0.023-0.355,0.073l-12.282,5.305v-11.624c0-0.303-0.151-0.582-0.404-0.749c-0.147-0.097-0.316-0.147-0.492-0.147
			c-0.123,0-0.242,0.026-0.354,0.074l-16.537,7.142c-0.328,0.14-0.54,0.462-0.54,0.82v40.555c-1.442-1.361-3.237-2.501-5.339-3.398
			c-3.026-1.286-6.524-1.966-10.113-1.966c-3.471,0-6.869,0.639-9.825,1.848c-2.078,0.851-3.868,1.942-5.328,3.246v-34.646
			c0-0.238-0.097-0.464-0.263-0.633c-0.169-0.166-0.4-0.261-0.632-0.261H19.419c-0.232,0-0.463,0.095-0.633,0.262
			c-0.166,0.168-0.262,0.397-0.262,0.632v20.968H9.976c-0.469,0-0.86,0.367-0.891,0.835l-1.942,29.271H0.894
			c-0.493,0-0.894,0.401-0.894,0.894c0,0.494,0.401,0.894,0.894,0.894H7.98c0.467,0,0.86-0.366,0.893-0.835l1.939-29.27h8.607
			c0.234,0,0.466-0.099,0.632-0.264c0.166-0.167,0.261-0.397,0.261-0.632v-20.968h22.285v35.981c0,0.381,0.242,0.721,0.599,0.845
			c0.096,0.032,0.195,0.051,0.296,0.051c0.273,0,0.527-0.124,0.697-0.338c1.429-1.791,3.575-3.306,6.203-4.381
			c2.739-1.121,5.903-1.712,9.147-1.712c3.352,0,6.607,0.629,9.413,1.823c2.689,1.142,4.835,2.743,6.211,4.627
			c0.166,0.23,0.438,0.367,0.723,0.367c0.095,0,0.186-0.016,0.276-0.045c0.369-0.12,0.617-0.463,0.617-0.849v-42.315l14.749-6.37
			v11.627c0,0.303,0.15,0.581,0.402,0.745c0.147,0.097,0.319,0.148,0.493,0.148c0.123,0,0.24-0.027,0.354-0.074l12.282-5.303v12.914
			c0,0.303,0.151,0.583,0.404,0.748c0.147,0.094,0.317,0.146,0.49,0.146c0.121,0,0.242-0.024,0.355-0.073l12.657-5.467v34.349
			c0,0.332,0.181,0.632,0.471,0.786c0.131,0.072,0.274,0.108,0.423,0.108c0.177,0,0.347-0.052,0.496-0.15l7.575-5.049l5.882,3.921
			c0.147,0.099,0.319,0.151,0.496,0.151c0.147,0,0.293-0.036,0.424-0.104c0.289-0.157,0.471-0.459,0.471-0.789v-75.67h10.879
			c0.235,0,0.466-0.095,0.632-0.262c0.166-0.168,0.261-0.397,0.261-0.632v-8.161h29.001v8.161c0,0.235,0.096,0.465,0.262,0.632
			c0.165,0.167,0.396,0.262,0.631,0.262h10.878v67.591c0,0.235,0.096,0.466,0.262,0.632c0.166,0.168,0.397,0.262,0.633,0.262h17.876
			c0.238,0,0.466-0.096,0.632-0.262c0.166-0.166,0.262-0.397,0.262-0.632V226.29h3.091c0.236,0,0.468-0.095,0.632-0.259
			c0.167-0.167,0.262-0.397,0.262-0.633v-5.082h3.093c0.234,0,0.465-0.097,0.632-0.265c0.165-0.165,0.261-0.394,0.261-0.631v-7.483
			h2.596v7.483c0,0.236,0.095,0.466,0.263,0.633c0.169,0.165,0.397,0.262,0.631,0.262h3.091v5.082c0,0.236,0.096,0.466,0.263,0.631
			c0.165,0.168,0.394,0.262,0.631,0.262h3.091v65.414c0,0.235,0.097,0.465,0.263,0.632c0.166,0.165,0.396,0.259,0.631,0.259h7.025
			c0.235,0,0.466-0.095,0.631-0.259c0.166-0.165,0.263-0.397,0.263-0.632V249.5h18.818v15.342c0,0.357,0.211,0.679,0.542,0.821
			l11.116,4.782v28.442c0,0.236,0.097,0.466,0.263,0.632c0.166,0.166,0.397,0.261,0.632,0.261h8.504
			c0.236,0,0.467-0.094,0.632-0.261c0.168-0.166,0.262-0.398,0.262-0.632v-27.236h36.174v23.186c0,0.236,0.095,0.465,0.261,0.631
			c0.163,0.169,0.397,0.264,0.633,0.264h7.894c0.235,0,0.466-0.095,0.629-0.261c0.166-0.166,0.262-0.397,0.262-0.633v-57.766h20.764
			v10.757c0,0.235,0.095,0.467,0.261,0.632c0.165,0.167,0.394,0.262,0.632,0.262h10.006v35.389c0,0.235,0.096,0.467,0.262,0.632
			c0.166,0.165,0.398,0.262,0.631,0.262h7.764v15.143c0,0.234,0.096,0.466,0.263,0.633c0.165,0.166,0.397,0.261,0.631,0.261h5.856
			c0.234,0,0.464-0.095,0.631-0.261c0.166-0.168,0.262-0.4,0.262-0.633v-19.603h19.272c0.238,0,0.468-0.094,0.632-0.261
			c0.166-0.166,0.262-0.396,0.262-0.632v-24.415h22.894v35.18c0,0.332,0.181,0.633,0.47,0.789c0.131,0.068,0.278,0.108,0.425,0.108
			c0.176,0,0.347-0.053,0.494-0.152l11.762-7.841l10.036,6.689c0.147,0.097,0.32,0.151,0.496,0.151c0.146,0,0.29-0.036,0.421-0.105
			c0.292-0.16,0.473-0.458,0.473-0.789v-1.375h13.782v18.294c0,0.234,0.095,0.465,0.261,0.631c0.165,0.169,0.397,0.263,0.633,0.263
			h5.204c0.238,0,0.469-0.094,0.635-0.262c0.165-0.168,0.259-0.396,0.259-0.632V247.17h8.06c0.236,0,0.466-0.096,0.633-0.262
			c0.165-0.166,0.261-0.396,0.261-0.633v-7.498h13.882l0.001,15.332c0,0.238,0.094,0.469,0.259,0.631
			c0.166,0.167,0.396,0.265,0.632,0.265h8.62v30.981c0,0.236,0.095,0.467,0.262,0.635c0.166,0.165,0.397,0.259,0.631,0.259h10.376
			v19.307c0,0.236,0.096,0.467,0.262,0.631c0.165,0.169,0.396,0.263,0.633,0.263h8.835c0.494,0,0.894-0.4,0.894-0.894
			C512,305.694,511.6,305.293,511.106,305.293z"/>
	</g>
	<path style="fill:#FFFFFF;" d="M511.106,305.506h-8.155v-19.52c0-0.178-0.074-0.351-0.2-0.481c-0.127-0.127-0.303-0.2-0.481-0.2
		h-10.59v-31.196c0-0.177-0.074-0.355-0.2-0.481c-0.127-0.128-0.302-0.198-0.482-0.198h-8.832v-15.55c0-0.178-0.072-0.352-0.2-0.481
		c-0.126-0.124-0.3-0.2-0.481-0.2h-15.669c-0.18,0-0.354,0.076-0.481,0.2c-0.127,0.128-0.2,0.303-0.2,0.481v7.717h-8.273
		c-0.178,0-0.353,0.07-0.481,0.197c-0.126,0.127-0.197,0.304-0.197,0.481v59.231h-3.845v-18.508c0-0.178-0.071-0.354-0.2-0.481
		c-0.126-0.127-0.303-0.199-0.481-0.199h-15.57c-0.18,0-0.357,0.072-0.482,0.199c-0.125,0.127-0.2,0.303-0.2,0.481v0.997
		l-9.471-6.315c-0.228-0.154-0.525-0.154-0.754,0l-11.201,7.468v-34.804c0-0.178-0.073-0.355-0.2-0.481
		c-0.127-0.126-0.303-0.2-0.481-0.2h-24.682c-0.178,0-0.354,0.074-0.481,0.2c-0.126,0.126-0.2,0.302-0.2,0.481v24.628h-19.484
		c-0.18,0-0.355,0.072-0.481,0.2c-0.127,0.128-0.201,0.301-0.201,0.481v19.815h-4.493v-15.357c0-0.178-0.071-0.354-0.198-0.481
		c-0.127-0.127-0.303-0.201-0.482-0.201h-7.976v-35.601c0-0.18-0.074-0.354-0.2-0.481c-0.126-0.126-0.302-0.197-0.482-0.197h-10.218
		v-10.972c0-0.181-0.072-0.357-0.199-0.481c-0.127-0.128-0.302-0.2-0.482-0.2h-22.548c-0.182,0-0.357,0.072-0.483,0.2
		c-0.126,0.124-0.199,0.3-0.199,0.481v57.978h-6.531v-23.401c0-0.18-0.074-0.355-0.2-0.482c-0.128-0.124-0.304-0.2-0.481-0.2
		h-37.962c-0.178,0-0.354,0.076-0.481,0.2c-0.127,0.127-0.2,0.302-0.2,0.482v27.451h-7.143v-28.35c0-0.271-0.162-0.519-0.411-0.625
		l-11.248-4.838v-15.788c0-0.178-0.073-0.354-0.199-0.481c-0.128-0.127-0.303-0.2-0.482-0.2h-20.606c-0.18,0-0.355,0.073-0.481,0.2
		c-0.127,0.127-0.2,0.302-0.2,0.481v42.417h-5.664v-65.626c0-0.18-0.072-0.352-0.2-0.479c-0.126-0.128-0.3-0.2-0.481-0.2h-3.305
		v-5.298c0-0.18-0.072-0.355-0.199-0.481c-0.127-0.126-0.301-0.2-0.482-0.2h-3.305v-7.697c0-0.18-0.072-0.354-0.198-0.481
		c-0.127-0.129-0.301-0.2-0.482-0.2h-4.382c-0.181,0-0.356,0.07-0.482,0.2c-0.127,0.127-0.2,0.301-0.2,0.481v7.697h-3.305
		c-0.178,0-0.355,0.074-0.481,0.2c-0.126,0.126-0.2,0.301-0.2,0.481v5.298h-3.305c-0.178,0-0.354,0.072-0.481,0.2
		c-0.127,0.127-0.2,0.3-0.2,0.479v57.274h-16.515v-67.805c0-0.178-0.072-0.355-0.199-0.481c-0.128-0.127-0.302-0.2-0.481-0.2
		h-11.093v-8.375c0-0.18-0.07-0.355-0.2-0.481c-0.126-0.128-0.301-0.2-0.481-0.2h-14.94h-0.906h-14.941
		c-0.18,0-0.355,0.072-0.481,0.2c-0.128,0.126-0.2,0.301-0.2,0.481v8.375h-11.092c-0.178,0-0.355,0.073-0.481,0.2
		c-0.126,0.126-0.199,0.302-0.199,0.481v75.292l-5.322-3.549c-0.228-0.151-0.525-0.151-0.754,0l-7.013,4.676v-34.436
		c0-0.231-0.116-0.444-0.307-0.57c-0.192-0.124-0.433-0.146-0.644-0.055l-12.956,5.592V248.58c0-0.228-0.115-0.442-0.307-0.569
		c-0.193-0.127-0.434-0.146-0.644-0.057l-12.58,5.433v-11.947c0-0.231-0.114-0.444-0.305-0.571
		c-0.192-0.126-0.435-0.146-0.646-0.057l-16.536,7.142c-0.25,0.108-0.412,0.354-0.412,0.625v42.902h0.679l0.55-0.402
		c-1.564-2.142-3.956-3.909-6.865-5.146c-2.912-1.238-6.347-1.95-10.029-1.95c-3.561,0-6.894,0.667-9.744,1.83
		c-2.848,1.168-5.217,2.832-6.835,4.856l0.531,0.423h0.681v-36.875c0-0.178-0.071-0.355-0.2-0.481
		c-0.127-0.127-0.301-0.201-0.481-0.201H19.419c-0.18,0-0.354,0.074-0.482,0.201c-0.127,0.126-0.2,0.303-0.2,0.481V275.4H9.976
		c-0.359,0-0.655,0.278-0.678,0.636l-1.955,29.47H0.894c-0.377,0-0.681,0.305-0.681,0.681c0,0.375,0.304,0.681,0.681,0.681H7.98
		c0.358,0,0.655-0.275,0.679-0.635l1.953-29.47h8.807c0.18,0,0.354-0.074,0.481-0.201c0.126-0.127,0.199-0.3,0.199-0.481v-21.182
		H42.81l0.001,36.194c0,0.292,0.181,0.548,0.455,0.644c0.273,0.096,0.575,0.008,0.756-0.217c1.437-1.802,3.613-3.352,6.288-4.446
		c2.671-1.094,5.838-1.729,9.228-1.729c3.506,0,6.768,0.681,9.495,1.841c2.728,1.16,4.917,2.804,6.3,4.697
		c0.174,0.239,0.481,0.339,0.762,0.246c0.278-0.092,0.467-0.353,0.467-0.647v-42.454l15.177-6.554v11.949
		c0,0.23,0.116,0.44,0.308,0.569c0.19,0.126,0.432,0.146,0.643,0.057l12.581-5.433v13.238c0,0.23,0.112,0.443,0.305,0.57
		c0.192,0.124,0.432,0.146,0.643,0.054l12.956-5.592v34.672c0,0.253,0.136,0.481,0.361,0.6c0.221,0.121,0.489,0.107,0.7-0.034
		l7.693-5.128l6.002,4c0.208,0.142,0.475,0.151,0.697,0.034c0.223-0.117,0.359-0.347,0.359-0.598v-75.883h11.093
		c0.179,0,0.354-0.073,0.481-0.2c0.127-0.127,0.2-0.303,0.2-0.481v-8.375h14.26h0.906h14.26v8.375c0,0.178,0.073,0.354,0.198,0.481
		c0.128,0.127,0.303,0.2,0.481,0.2h11.092v67.804c0,0.18,0.072,0.355,0.2,0.481c0.127,0.127,0.301,0.2,0.482,0.2h17.876
		c0.18,0,0.355-0.073,0.481-0.2c0.127-0.126,0.2-0.301,0.2-0.481v-57.274h3.305c0.18,0,0.355-0.072,0.481-0.199
		c0.128-0.127,0.2-0.304,0.2-0.482v-5.295h3.306c0.177,0,0.353-0.073,0.481-0.201c0.126-0.126,0.199-0.301,0.199-0.481v-7.697h3.022
		v7.697c0,0.18,0.073,0.355,0.2,0.481c0.127,0.128,0.303,0.201,0.481,0.201h3.306v5.295c0,0.178,0.073,0.355,0.2,0.482
		c0.126,0.127,0.301,0.199,0.48,0.199h3.306v65.626c0,0.178,0.072,0.354,0.2,0.479c0.126,0.128,0.301,0.199,0.479,0.199h7.025
		c0.18,0,0.354-0.07,0.481-0.199c0.128-0.126,0.2-0.301,0.2-0.479v-42.417h19.245v15.555c0,0.27,0.162,0.516,0.412,0.624
		l11.247,4.839v28.583c0,0.18,0.073,0.355,0.2,0.481c0.126,0.128,0.302,0.198,0.481,0.198h8.504c0.181,0,0.355-0.07,0.482-0.198
		c0.126-0.126,0.198-0.301,0.198-0.481v-27.449h36.601v23.399c0,0.181,0.07,0.354,0.199,0.481c0.127,0.129,0.302,0.2,0.482,0.2
		h7.894c0.178,0,0.351-0.07,0.478-0.2c0.128-0.127,0.2-0.3,0.2-0.481v-57.978h21.19v10.969c0,0.178,0.073,0.355,0.2,0.481
		c0.127,0.13,0.301,0.2,0.481,0.2h10.221v35.603c0,0.181,0.07,0.354,0.198,0.482c0.126,0.126,0.301,0.2,0.48,0.2h7.977v15.355
		c0,0.18,0.072,0.355,0.2,0.482c0.126,0.126,0.301,0.2,0.481,0.2h5.856c0.18,0,0.352-0.074,0.479-0.2
		c0.128-0.127,0.2-0.303,0.2-0.482v-19.816h19.485c0.181,0,0.355-0.07,0.481-0.2c0.128-0.124,0.2-0.3,0.2-0.479v-24.627h23.321
		v35.392c0,0.253,0.138,0.482,0.359,0.602c0.223,0.119,0.489,0.105,0.698-0.035l11.88-7.922l10.153,6.769
		c0.211,0.143,0.477,0.154,0.7,0.035c0.221-0.119,0.359-0.348,0.359-0.6v-1.588h14.209v18.508c0,0.18,0.073,0.354,0.2,0.481
		c0.126,0.127,0.301,0.2,0.481,0.2h5.204c0.181,0,0.356-0.073,0.483-0.2c0.126-0.127,0.199-0.301,0.199-0.481v-59.231h8.272
		c0.181,0,0.355-0.073,0.482-0.197c0.127-0.128,0.2-0.305,0.2-0.484v-7.712h14.306l0.001,15.546c0,0.18,0.073,0.357,0.199,0.482
		c0.127,0.127,0.302,0.199,0.481,0.199h8.834v31.196c0,0.18,0.072,0.357,0.2,0.483c0.126,0.126,0.303,0.197,0.48,0.197h10.591
		v19.521c0,0.18,0.072,0.354,0.197,0.481c0.128,0.127,0.302,0.2,0.483,0.2h8.835c0.375,0,0.681-0.305,0.681-0.681
		C511.787,305.811,511.481,305.506,511.106,305.506L511.106,305.506z M155.587,212.601v0.683h11.093v28.066h-10.411v-28.75H155.587
		v0.683V212.601h-0.681v29.433c0,0.177,0.074,0.354,0.2,0.479c0.128,0.126,0.303,0.199,0.481,0.199h11.774
		c0.178,0,0.355-0.073,0.479-0.199c0.127-0.126,0.201-0.302,0.201-0.479v-29.433c0-0.177-0.074-0.351-0.201-0.481
		c-0.124-0.127-0.301-0.197-0.479-0.197h-11.774c-0.178,0-0.352,0.07-0.481,0.197c-0.126,0.13-0.2,0.304-0.2,0.481H155.587z
		 M167.361,249.277h-0.681v56.229h-10.411v-55.55h11.092V249.277h-0.681H167.361v-0.682h-11.774c-0.178,0-0.352,0.074-0.481,0.2
		c-0.126,0.127-0.2,0.303-0.2,0.482v56.91c0,0.18,0.074,0.354,0.2,0.481c0.128,0.127,0.303,0.2,0.481,0.2h11.774
		c0.178,0,0.355-0.073,0.479-0.2c0.127-0.127,0.201-0.301,0.201-0.481v-56.91c0-0.18-0.074-0.355-0.201-0.482
		c-0.124-0.126-0.301-0.2-0.479-0.2V249.277z"/>
	<rect x="239.574" y="257.228" style="fill:#FFFFFF;" width="9.003" height="1.579"/>
	<rect x="239.574" y="265.379" style="fill:#FFFFFF;" width="9.003" height="1.58"/>
	<rect x="239.574" y="273.534" style="fill:#FFFFFF;" width="9.003" height="1.579"/>
	<rect x="239.574" y="281.686" style="fill:#FFFFFF;" width="9.003" height="1.58"/>
	<rect x="239.574" y="289.84" style="fill:#FFFFFF;" width="9.003" height="1.58"/>
	<rect x="239.574" y="297.995" style="fill:#FFFFFF;" width="9.003" height="1.576"/>
	<rect x="256.91" y="272.958" style="fill:#FFFFFF;" width="1.58" height="3.158"/>
	<rect x="261.201" y="283.901" style="fill:#FFFFFF;" width="1.58" height="3.158"/>
	<rect x="256.695" y="294.198" style="fill:#FFFFFF;" width="1.58" height="3.159"/>
	<rect x="139.558" y="225.228" style="fill:#FFFFFF;" width="1.843" height="3.688"/>
	<rect x="146.575" y="225.228" style="fill:#FFFFFF;" width="1.843" height="3.688"/>
	<rect x="139.558" y="237.757" style="fill:#FFFFFF;" width="1.843" height="3.69"/>
	<rect x="139.558" y="250.289" style="fill:#FFFFFF;" width="1.843" height="3.688"/>
	<rect x="146.575" y="250.289" style="fill:#FFFFFF;" width="1.843" height="3.688"/>
	<rect x="146.575" y="262.819" style="fill:#FFFFFF;" width="1.843" height="3.687"/>
	<rect x="139.558" y="275.349" style="fill:#FFFFFF;" width="1.843" height="3.69"/>
	<rect x="146.575" y="275.349" style="fill:#FFFFFF;" width="1.843" height="3.69"/>
	<rect x="139.558" y="287.882" style="fill:#FFFFFF;" width="1.843" height="3.687"/>
	<rect x="180.656" y="225.228" style="fill:#FFFFFF;" width="1.846" height="3.688"/>
	<rect x="173.64" y="237.757" style="fill:#FFFFFF;" width="1.845" height="3.69"/>
	<rect x="173.64" y="250.289" style="fill:#FFFFFF;" width="1.845" height="3.688"/>
	<rect x="180.656" y="250.289" style="fill:#FFFFFF;" width="1.846" height="3.688"/>
	<rect x="173.64" y="262.819" style="fill:#FFFFFF;" width="1.845" height="3.687"/>
	<rect x="180.656" y="262.819" style="fill:#FFFFFF;" width="1.846" height="3.687"/>
	<rect x="180.656" y="275.349" style="fill:#FFFFFF;" width="1.846" height="3.69"/>
	<rect x="173.64" y="287.882" style="fill:#FFFFFF;" width="1.845" height="3.687"/>
	<rect x="50.597" y="298.243" style="fill:#FFFFFF;" width="1.845" height="3.69"/>
	<rect x="58.617" y="298.243" style="fill:#FFFFFF;" width="1.846" height="3.69"/>
	<rect x="66.638" y="298.243" style="fill:#FFFFFF;" width="1.844" height="3.69"/>
	<rect x="84.174" y="259.31" style="fill:#FFFFFF;" width="1.842" height="3.69"/>
	<rect x="84.174" y="271.84" style="fill:#FFFFFF;" width="1.842" height="3.69"/>
	<rect x="97.205" y="270.838" style="fill:#FFFFFF;" width="1.843" height="3.69"/>
	<rect x="97.205" y="283.368" style="fill:#FFFFFF;" width="1.843" height="3.69"/>
	<rect x="84.174" y="296.901" style="fill:#FFFFFF;" width="1.842" height="3.69"/>
	<rect x="97.205" y="295.899" style="fill:#FFFFFF;" width="1.843" height="3.69"/>
	<rect x="110.236" y="270.838" style="fill:#FFFFFF;" width="1.844" height="3.69"/>
	<rect x="110.236" y="283.368" style="fill:#FFFFFF;" width="1.844" height="3.69"/>
	<rect x="29.128" y="264.602" style="fill:#FFFFFF;" width="2.481" height="2.444"/>
	<rect x="29.128" y="283.332" style="fill:#FFFFFF;" width="2.481" height="2.446"/>
	<rect x="327.455" y="257.695" style="fill:#FFFFFF;" width="1.956" height="3.912"/>
	<rect x="327.455" y="271.881" style="fill:#FFFFFF;" width="1.956" height="3.912"/>
	<rect x="327.455" y="286.067" style="fill:#FFFFFF;" width="1.956" height="3.912"/>
	<rect x="335.713" y="243.509" style="fill:#FFFFFF;" width="1.956" height="3.911"/>
	<rect x="335.713" y="257.695" style="fill:#FFFFFF;" width="1.956" height="3.912"/>
	<rect x="335.713" y="286.067" style="fill:#FFFFFF;" width="1.956" height="3.912"/>
	<rect x="343.97" y="257.695" style="fill:#FFFFFF;" width="1.956" height="3.912"/>
	<rect x="343.97" y="271.881" style="fill:#FFFFFF;" width="1.956" height="3.912"/>
	<rect x="463.905" y="254.321" style="fill:#FFFFFF;" width="1.956" height="3.914"/>
	<rect x="463.905" y="282.693" style="fill:#FFFFFF;" width="1.956" height="3.914"/>
	<rect x="463.905" y="296.879" style="fill:#FFFFFF;" width="1.956" height="3.911"/>
	<rect x="472.162" y="254.321" style="fill:#FFFFFF;" width="1.956" height="3.914"/>
	<rect x="472.162" y="268.509" style="fill:#FFFFFF;" width="1.956" height="3.911"/>
	<rect x="472.162" y="282.693" style="fill:#FFFFFF;" width="1.956" height="3.914"/>
	<rect x="472.162" y="296.879" style="fill:#FFFFFF;" width="1.956" height="3.911"/>
	<rect x="480.418" y="268.509" style="fill:#FFFFFF;" width="1.957" height="3.911"/>
	<rect x="480.418" y="282.693" style="fill:#FFFFFF;" width="1.957" height="3.914"/>
	<rect x="281.569" y="277.429" style="fill:#FFFFFF;" width="1.956" height="3.911"/>
	<rect x="297.557" y="277.429" style="fill:#FFFFFF;" width="1.955" height="3.911"/>
	<rect x="305.551" y="277.429" style="fill:#FFFFFF;" width="1.955" height="3.911"/>
	<rect x="281.569" y="289.774" style="fill:#FFFFFF;" width="1.956" height="3.912"/>
	<rect x="289.563" y="289.774" style="fill:#FFFFFF;" width="1.956" height="3.912"/>
	<rect x="297.557" y="289.774" style="fill:#FFFFFF;" width="1.955" height="3.912"/>
	<rect x="420.422" y="296.158" style="fill:#FFFFFF;" width="2.484" height="2.269"/>
	<rect x="428.215" y="296.158" style="fill:#FFFFFF;" width="2.481" height="2.269"/>
	<rect x="123.708" y="298.61" style="fill:#FFFFFF;" width="2.039" height="1.866"/>
	<rect x="130.112" y="298.61" style="fill:#FFFFFF;" width="2.039" height="1.866"/>
	<rect x="395.072" y="262.206" style="fill:#FFFFFF;" width="1.957" height="3.914"/>
	<rect x="395.072" y="274.585" style="fill:#FFFFFF;" width="1.957" height="3.914"/>
	<rect x="395.072" y="286.963" style="fill:#FFFFFF;" width="1.957" height="3.914"/>
	<rect x="403.769" y="262.206" style="fill:#FFFFFF;" width="1.956" height="3.914"/>
	<rect x="403.769" y="286.963" style="fill:#FFFFFF;" width="1.956" height="3.914"/>
	<rect x="403.769" y="299.345" style="fill:#FFFFFF;" width="1.956" height="3.911"/>
	<rect x="212.094" y="232.462" style="fill:#FFFFFF;" width="1.954" height="3.911"/>
	<rect x="212.094" y="245.111" style="fill:#FFFFFF;" width="1.954" height="3.911"/>
	<rect x="212.094" y="270.413" style="fill:#FFFFFF;" width="1.954" height="3.911"/>
	<rect x="212.094" y="283.063" style="fill:#FFFFFF;" width="1.954" height="3.911"/>
	<rect x="219.066" y="257.76" style="fill:#FFFFFF;" width="1.956" height="3.914"/>
	<rect x="219.066" y="270.413" style="fill:#FFFFFF;" width="1.956" height="3.911"/>
	<rect x="219.066" y="283.063" style="fill:#FFFFFF;" width="1.956" height="3.911"/>
	<rect x="219.066" y="295.712" style="fill:#FFFFFF;" width="1.956" height="3.911"/>
</g>
</svg>
